<svg width="32" height="32" viewBox="0 0 32 32" fill="none" xmlns="http://www.w3.org/2000/svg">
<path d="M27.4401 14.5868L18.1067 5.25344C17.5994 4.74851 16.8612 4.55258 16.1703 4.73946C15.4794 4.92634 14.9406 5.46764 14.757 6.15946C14.5733 6.85128 14.7727 7.58851 15.2801 8.09344L21.1867 13.9868H5.97339C4.86882 13.9868 3.97339 14.8822 3.97339 15.9868C3.97339 17.0913 4.86882 17.9868 5.97339 17.9868H21.1867L15.2801 23.8801C14.7088 24.4521 14.538 25.3117 14.8473 26.0586C15.1565 26.8055 15.885 27.2927 16.6934 27.2934C17.2301 27.2855 17.7405 27.0592 18.1067 26.6668L27.4401 17.3334C28.2199 16.5526 28.2199 15.2876 27.4401 14.5068V14.5868Z" fill="white"/>
</svg>
