

<svg width="18" height="18" viewBox="0 0 18 18" fill="none" xmlns="http://www.w3.org/2000/svg">
<path fill-rule="evenodd" clip-rule="evenodd" d="M15.75 9C15.75 8.68934 15.4982 8.4375 15.1875 8.4375L2.8125 8.4375C2.50184 8.4375 2.25 8.68934 2.25 9C2.25 9.31066 2.50184 9.5625 2.8125 9.5625L15.1875 9.5625C15.4982 9.5625 15.75 9.31066 15.75 9Z" fill="#F8F8F8"/>
<path fill-rule="evenodd" clip-rule="evenodd" d="M9.72725 3.53975C9.50758 3.75942 9.50758 4.11558 9.72725 4.33525L14.392 9L9.72725 13.6648C9.50758 13.8844 9.50758 14.2406 9.72725 14.4602C9.94692 14.6799 10.3031 14.6799 10.5227 14.4602L15.5852 9.39775C15.8049 9.17808 15.8049 8.82192 15.5852 8.60225L10.5227 3.53975C10.3031 3.32008 9.94692 3.32008 9.72725 3.53975Z" fill="#F8F8F8"/>
</svg>
