<svg width="80" height="80" viewBox="0 0 80 80" fill="none" xmlns="http://www.w3.org/2000/svg">
<rect width="80" height="80" rx="40" fill="#D7D7FF"/>
<g clip-path="url(#clip0_1_1913)">
<path d="M29.8261 29.82L30.8761 28.91C32.0861 27.7 34.0461 27.7 35.2561 28.91C35.2861 28.94 37.1361 31.35 37.1361 31.35C38.2761 32.55 38.2761 34.44 37.1361 35.63L35.9761 37.09C37.4361 40.4 39.7061 42.68 42.9061 44.04L44.3661 42.87C45.5561 41.72 47.4562 41.72 48.6462 42.87C48.6462 42.87 51.0562 44.72 51.0862 44.75C52.2962 45.96 52.2962 47.92 51.1362 49.08L50.1362 50.23C48.9862 51.38 47.4362 52.01 45.7562 52.01C38.1161 52.01 27.9961 41.88 27.9961 34.25C27.9961 32.58 28.6261 31.02 29.8261 29.83V29.82ZM45.7562 50C46.8962 50 47.9462 49.58 48.6662 48.85L49.6662 47.7C50.0762 47.29 50.0962 46.62 49.7062 46.19C49.7062 46.19 47.3162 44.35 47.2862 44.32C46.8762 43.91 46.1561 43.91 45.7361 44.32C45.7062 44.35 43.6961 45.96 43.6961 45.96C43.4162 46.18 43.0462 46.24 42.7162 46.11C38.5761 44.53 35.6061 41.57 33.8961 37.3C33.7661 36.97 33.8161 36.59 34.0461 36.3C34.0461 36.3 35.6561 34.28 35.6761 34.26C36.1061 33.83 36.1061 33.14 35.6761 32.71C35.6461 32.68 33.8061 30.29 33.8061 30.29C33.3761 29.9 32.7061 29.91 32.2461 30.37L31.1961 31.28C30.4261 32.05 29.9961 33.1 29.9961 34.24C29.9961 41.2 39.7661 50 45.7562 50Z" fill="#667B68"/>
</g>
<defs>
<clipPath id="clip0_1_1913">
<rect width="24" height="24" fill="white" transform="translate(28 28)"/>
</clipPath>
</defs>
</svg>
