<svg width="24" height="24" viewBox="0 0 24 24" fill="none" xmlns="http://www.w3.org/2000/svg">
<g clip-path="url(#clip0_1_2063)">
<g clip-path="url(#clip1_1_2063)">
<path d="M16 8C15.8125 7.81253 15.5582 7.70721 15.293 7.70721C15.0278 7.70721 14.7735 7.81253 14.586 8L12 10.586L9.41401 8C9.22541 7.81784 8.97281 7.71705 8.71061 7.71933C8.44841 7.72161 8.1976 7.82677 8.01219 8.01218C7.82678 8.19759 7.72162 8.4484 7.71934 8.7106C7.71706 8.9728 7.81785 9.2254 8.00001 9.414L10.586 12L8.00001 14.586C7.81785 14.7746 7.71706 15.0272 7.71934 15.2894C7.72162 15.5516 7.82678 15.8024 8.01219 15.9878C8.1976 16.1732 8.44841 16.2784 8.71061 16.2807C8.97281 16.283 9.22541 16.1822 9.41401 16L12 13.414L14.586 16C14.7746 16.1822 15.0272 16.283 15.2894 16.2807C15.5516 16.2784 15.8024 16.1732 15.9878 15.9878C16.1732 15.8024 16.2784 15.5516 16.2807 15.2894C16.283 15.0272 16.1822 14.7746 16 14.586L13.414 12L16 9.414C16.1875 9.22647 16.2928 8.97216 16.2928 8.707C16.2928 8.44184 16.1875 8.18753 16 8Z" fill="#282B2B"/>
<path d="M12 0C9.62663 0 7.30655 0.703788 5.33316 2.02236C3.35977 3.34094 1.8217 5.21509 0.913451 7.4078C0.00519943 9.60051 -0.232441 12.0133 0.230582 14.3411C0.693605 16.6689 1.83649 18.8071 3.51472 20.4853C5.19295 22.1635 7.33115 23.3064 9.65892 23.7694C11.9867 24.2324 14.3995 23.9948 16.5922 23.0866C18.7849 22.1783 20.6591 20.6402 21.9776 18.6668C23.2962 16.6935 24 14.3734 24 12C23.9966 8.81846 22.7312 5.76821 20.4815 3.51852C18.2318 1.26883 15.1815 0.00344108 12 0ZM12 22C10.0222 22 8.08879 21.4135 6.4443 20.3147C4.79981 19.2159 3.51809 17.6541 2.76121 15.8268C2.00433 13.9996 1.8063 11.9889 2.19215 10.0491C2.578 8.10929 3.53041 6.32746 4.92894 4.92893C6.32746 3.53041 8.10929 2.578 10.0491 2.19215C11.9889 1.8063 13.9996 2.00433 15.8268 2.7612C17.6541 3.51808 19.2159 4.79981 20.3147 6.4443C21.4135 8.08879 22 10.0222 22 12C21.9971 14.6513 20.9426 17.1931 19.0679 19.0679C17.1931 20.9426 14.6513 21.9971 12 22Z" fill="#282B2B"/>
</g>
</g>
<defs>
<clipPath id="clip0_1_2063">
<rect width="24" height="24" fill="white"/>
</clipPath>
<clipPath id="clip1_1_2063">
<rect width="24" height="24" fill="white"/>
</clipPath>
</defs>
</svg>
