<svg width="16" height="16" viewBox="0 0 16 16" fill="none" xmlns="http://www.w3.org/2000/svg">
<g clip-path="url(#clip0_159_3024)">
<path d="M8 16C3.58867 16 0 12.4113 0 8C0 3.58867 3.58867 0 8 0C12.4113 0 16 3.58867 16 8C16 12.4113 12.4113 16 8 16ZM8 1.33333C4.324 1.33333 1.33333 4.324 1.33333 8C1.33333 11.676 4.324 14.6667 8 14.6667C11.676 14.6667 14.6667 11.676 14.6667 8C14.6667 4.324 11.676 1.33333 8 1.33333ZM9.66667 10.8867C9.986 10.7027 10.0953 10.2947 9.91067 9.976L8.66667 7.82133V4C8.66667 3.632 8.36867 3.33333 8 3.33333C7.63133 3.33333 7.33333 3.632 7.33333 4V8C7.33333 8.11733 7.364 8.232 7.42267 8.33333L8.756 10.6427C8.88 10.8567 9.10333 10.976 9.334 10.976C9.44733 10.976 9.562 10.9473 9.66667 10.8867Z" fill="#247BA0"/>
</g>
<defs>
<clipPath id="clip0_159_3024">
<rect width="16" height="16" fill="white"/>
</clipPath>
</defs>
</svg>
