<svg width="18" height="24" viewBox="0 0 18 24" fill="none" xmlns="http://www.w3.org/2000/svg">
<path d="M16.535 3.12202L14.879 1.46402C14.4157 0.998333 13.8646 0.629159 13.2576 0.377864C12.6507 0.126569 11.9999 -0.00185599 11.343 2.02654e-05H5C3.67441 0.00160812 2.40356 0.528902 1.46622 1.46624C0.528882 2.40358 0.00158786 3.67443 0 5.00002V19C0.00158786 20.3256 0.528882 21.5965 1.46622 22.5338C2.40356 23.4711 3.67441 23.9984 5 24H13C14.3256 23.9984 15.5964 23.4711 16.5338 22.5338C17.4711 21.5965 17.9984 20.3256 18 19V6.65702C18.0016 6.0002 17.873 5.34959 17.6215 4.74281C17.37 4.13604 17.0007 3.58515 16.535 3.12202ZM15.121 4.53602C15.2628 4.67734 15.3898 4.83282 15.5 5.00002H13V2.50002C13.1669 2.61134 13.3227 2.7386 13.465 2.88002L15.121 4.53602ZM16 19C16 19.7957 15.6839 20.5587 15.1213 21.1213C14.5587 21.684 13.7956 22 13 22H5C4.20435 22 3.44129 21.684 2.87868 21.1213C2.31607 20.5587 2 19.7957 2 19V5.00002C2 4.20437 2.31607 3.44131 2.87868 2.8787C3.44129 2.31609 4.20435 2.00002 5 2.00002H11V5.00002C11 5.53045 11.2107 6.03916 11.5858 6.41423C11.9609 6.78931 12.4696 7.00002 13 7.00002H16V19ZM13 9.00002C13.2652 9.00002 13.5196 9.10538 13.7071 9.29291C13.8946 9.48045 14 9.73481 14 10C14 10.2652 13.8946 10.5196 13.7071 10.7071C13.5196 10.8947 13.2652 11 13 11H5C4.73478 11 4.48043 10.8947 4.29289 10.7071C4.10536 10.5196 4 10.2652 4 10C4 9.73481 4.10536 9.48045 4.29289 9.29291C4.48043 9.10538 4.73478 9.00002 5 9.00002H13ZM14 14C14 14.2652 13.8946 14.5196 13.7071 14.7071C13.5196 14.8947 13.2652 15 13 15H5C4.73478 15 4.48043 14.8947 4.29289 14.7071C4.10536 14.5196 4 14.2652 4 14C4 13.7348 4.10536 13.4805 4.29289 13.2929C4.48043 13.1054 4.73478 13 5 13H13C13.2652 13 13.5196 13.1054 13.7071 13.2929C13.8946 13.4805 14 13.7348 14 14ZM13.808 17.413C13.9634 17.6269 14.0279 17.8936 13.9872 18.1548C13.9466 18.416 13.8041 18.6505 13.591 18.807C12.5778 19.529 11.3778 19.9432 10.135 20C9.40888 19.9965 8.70482 19.7501 8.135 19.3C7.807 19.075 7.682 19 7.435 19C6.76643 19.1035 6.13562 19.3769 5.603 19.794C5.39175 19.9446 5.13024 20.0072 4.87369 19.9686C4.61715 19.93 4.38565 19.7932 4.22808 19.5871C4.07052 19.381 3.99922 19.1217 4.02925 18.864C4.05927 18.6063 4.18827 18.3704 4.389 18.206C5.27018 17.522 6.32828 17.1036 7.439 17C8.10513 17.0107 8.74912 17.2409 9.271 17.655C9.50889 17.869 9.81517 17.9913 10.135 18C10.9527 17.9388 11.739 17.6594 12.412 17.191C12.6266 17.0355 12.8942 16.9715 13.1559 17.0131C13.4177 17.0547 13.6522 17.1986 13.808 17.413Z" fill="white"/>
</svg>
