<svg width="16" height="16" viewBox="0 0 16 16" fill="none" xmlns="http://www.w3.org/2000/svg">
<g clip-path="url(#clip0_1_2333)">
<path d="M8 0C6.41775 0 4.87104 0.469192 3.55544 1.34824C2.23985 2.22729 1.21447 3.47672 0.608967 4.93853C0.00346629 6.40034 -0.15496 8.00887 0.153721 9.56072C0.462403 11.1126 1.22433 12.538 2.34315 13.6569C3.46197 14.7757 4.88743 15.5376 6.43928 15.8463C7.99113 16.155 9.59966 15.9965 11.0615 15.391C12.5233 14.7855 13.7727 13.7602 14.6518 12.4446C15.5308 11.129 16 9.58225 16 8C15.9977 5.87897 15.1541 3.84547 13.6543 2.34568C12.1545 0.845886 10.121 0.00229405 8 0ZM8 14.6667C6.68146 14.6667 5.39253 14.2757 4.2962 13.5431C3.19987 12.8106 2.34539 11.7694 1.84081 10.5512C1.33622 9.33305 1.2042 7.99261 1.46144 6.6994C1.71867 5.40619 2.35361 4.21831 3.28596 3.28596C4.21831 2.35361 5.4062 1.71867 6.6994 1.46143C7.99261 1.2042 9.33305 1.33622 10.5512 1.8408C11.7694 2.34539 12.8106 3.19987 13.5431 4.2962C14.2757 5.39253 14.6667 6.68146 14.6667 8C14.6647 9.76752 13.9617 11.4621 12.7119 12.7119C11.4621 13.9617 9.76752 14.6647 8 14.6667Z" fill="#282B2B"/>
<path d="M8.47804 3.37522C8.09359 3.30518 7.69845 3.32048 7.32057 3.42005C6.94269 3.51962 6.59131 3.70102 6.2913 3.95142C5.99129 4.20183 5.74998 4.5151 5.58445 4.86909C5.41891 5.22307 5.3332 5.60911 5.33337 5.99989C5.33337 6.1767 5.40361 6.34627 5.52864 6.47129C5.65366 6.59632 5.82323 6.66656 6.00004 6.66656C6.17685 6.66656 6.34642 6.59632 6.47145 6.47129C6.59647 6.34627 6.66671 6.1767 6.66671 5.99989C6.66654 5.80374 6.70965 5.60997 6.79297 5.43239C6.87629 5.25482 6.99776 5.09781 7.14872 4.97257C7.29968 4.84733 7.47642 4.75695 7.66632 4.70785C7.85623 4.65876 8.05463 4.65217 8.24737 4.68856C8.51073 4.73968 8.75288 4.86815 8.94287 5.05755C9.13287 5.24695 9.26209 5.48869 9.31404 5.75189C9.36651 6.02816 9.33028 6.31394 9.21054 6.56838C9.09081 6.82282 8.89369 7.03289 8.64737 7.16856C8.23949 7.40487 7.90243 7.74623 7.67132 8.15709C7.44022 8.56795 7.32351 9.03326 7.33337 9.50456V9.99989C7.33337 10.1767 7.40361 10.3463 7.52864 10.4713C7.65366 10.5963 7.82323 10.6666 8.00004 10.6666C8.17685 10.6666 8.34642 10.5963 8.47145 10.4713C8.59647 10.3463 8.66671 10.1767 8.66671 9.99989V9.50456C8.65834 9.27256 8.71124 9.04246 8.82009 8.83742C8.92893 8.63237 9.08987 8.45962 9.28671 8.33656C9.76972 8.07127 10.1587 7.66286 10.4001 7.16749C10.6415 6.67212 10.7235 6.11413 10.6349 5.57024C10.5462 5.02635 10.2913 4.52328 9.90504 4.13022C9.51881 3.73715 9.02029 3.4734 8.47804 3.37522Z" fill="#282B2B"/>
<path d="M8.66671 12.0002C8.66671 11.632 8.36823 11.3335 8.00004 11.3335C7.63185 11.3335 7.33337 11.632 7.33337 12.0002C7.33337 12.3684 7.63185 12.6668 8.00004 12.6668C8.36823 12.6668 8.66671 12.3684 8.66671 12.0002Z" fill="#282B2B"/>
</g>
<defs>
<clipPath id="clip0_1_2333">
<rect width="16" height="16" fill="white"/>
</clipPath>
</defs>
</svg>
