<svg width="24" height="24" viewBox="0 0 24 24" fill="none" xmlns="http://www.w3.org/2000/svg">
<g clip-path="url(#clip0_118_1158)">
<path d="M14 18H10C8.897 18 8 17.103 8 16V12C8 10.897 8.897 9.99998 10 9.99998H14C15.103 9.99998 16 10.897 16 12V16C16 17.103 15.103 18 14 18ZM10 12V16H14.002L14 12H10ZM19 24H5C2.243 24 0 21.757 0 19V9.72398C0 8.05898 0.824 6.50898 2.204 5.57898L9.203 0.854984C10.902 -0.291017 13.098 -0.291017 14.797 0.854984L21.797 5.57898C23.176 6.50898 24 8.05798 24 9.72398V19C24 21.757 21.757 24 19 24ZM12 1.99698C11.416 1.99698 10.832 2.16898 10.322 2.51398L3.322 7.23698C2.494 7.79498 2 8.72398 2 9.72298V18.999C2 20.653 3.346 21.999 5 21.999H19C20.654 21.999 22 20.653 22 18.999V9.72398C22 8.72499 21.506 7.79498 20.679 7.23798L13.678 2.51398C13.168 2.16898 12.584 1.99698 12 1.99698Z" fill="white"/>
</g>
<defs>
<clipPath id="clip0_118_1158">
<rect width="24" height="24" fill="white"/>
</clipPath>
</defs>
</svg>







