<svg width="21" height="20" viewBox="0 0 21 20" fill="none" xmlns="http://www.w3.org/2000/svg">
<mask id="mask0_1_2386" style="mask-type:alpha" maskUnits="userSpaceOnUse" x="0" y="0" width="21" height="20">
<rect x="0.800049" width="20" height="20" fill="#D9D9D9"/>
</mask>
<g mask="url(#mask0_1_2386)">
<path fill-rule="evenodd" clip-rule="evenodd" d="M6.41655 2.50016C5.96552 2.50016 5.59989 2.87326 5.59989 3.3335V16.6668C5.59989 17.1271 5.96552 17.5002 6.41655 17.5002H14.5832C15.0343 17.5002 15.3999 17.1271 15.3999 16.6668V3.3335C15.3999 2.87326 15.0343 2.50016 14.5832 2.50016H6.41655ZM3.96655 3.3335C3.96655 1.95278 5.06345 0.833496 6.41655 0.833496H14.5832C15.9363 0.833496 17.0332 1.95278 17.0332 3.3335V16.6668C17.0332 18.0475 15.9363 19.1668 14.5832 19.1668H6.41655C5.06345 19.1668 3.96655 18.0475 3.96655 16.6668V3.3335Z" fill="white"/>
<path fill-rule="evenodd" clip-rule="evenodd" d="M9.68335 14.9998C9.68335 14.5396 10.049 14.1665 10.5 14.1665H10.5082C10.9592 14.1665 11.3249 14.5396 11.3249 14.9998C11.3249 15.4601 10.9592 15.8332 10.5082 15.8332H10.5C10.049 15.8332 9.68335 15.4601 9.68335 14.9998Z" fill="white"/>
</g>
</svg>
