<svg width="16" height="16" viewBox="0 0 16 16" fill="none" xmlns="http://www.w3.org/2000/svg">
<g clip-path="url(#clip0_159_478)">
<path d="M1.21743 1.21331L1.91743 0.606648C2.7241 -0.200019 4.03077 -0.200019 4.83743 0.606648C4.85743 0.626648 6.09077 2.23331 6.09077 2.23331C6.85077 3.03331 6.85077 4.29331 6.09077 5.08665L5.31743 6.05998C6.29077 8.26665 7.8041 9.78665 9.93743 10.6933L10.9108 9.91332C11.7041 9.14665 12.9708 9.14665 13.7641 9.91332C13.7641 9.91332 15.3708 11.1466 15.3908 11.1666C16.1974 11.9733 16.1974 13.28 15.4241 14.0533L14.7574 14.82C13.9908 15.5866 12.9574 16.0066 11.8374 16.0066C6.7441 16.0066 -0.00256729 9.25332 -0.00256729 4.16665C-0.00256729 3.05331 0.417432 2.01331 1.21743 1.21998V1.21331ZM11.8374 14.6666C12.5974 14.6666 13.2974 14.3866 13.7774 13.9L14.4441 13.1333C14.7174 12.86 14.7308 12.4133 14.4708 12.1266C14.4708 12.1266 12.8774 10.9 12.8574 10.88C12.5841 10.6066 12.1041 10.6066 11.8241 10.88C11.8041 10.9 10.4641 11.9733 10.4641 11.9733C10.2774 12.12 10.0308 12.16 9.81077 12.0733C7.05077 11.02 5.07077 9.04665 3.93077 6.19998C3.8441 5.97998 3.87743 5.72665 4.03077 5.53332C4.03077 5.53332 5.1041 4.18665 5.11743 4.17332C5.4041 3.88665 5.4041 3.42665 5.11743 3.13998C5.09743 3.11998 3.87077 1.52665 3.87077 1.52665C3.5841 1.26665 3.13743 1.27331 2.83077 1.57998L2.13077 2.18665C1.61743 2.69998 1.33077 3.39998 1.33077 4.15998C1.33077 8.79998 7.8441 14.6666 11.8374 14.6666Z" fill="#247BA0"/>
</g>
<defs>
<clipPath id="clip0_159_478">
<rect width="16" height="16" fill="white"/>
</clipPath>
</defs>
</svg>
