<svg width="80" height="80" viewBox="0 0 80 80" fill="none" xmlns="http://www.w3.org/2000/svg">
<rect width="80" height="80" rx="40" fill="#D7D7FF"/>
<g clip-path="url(#clip0_1_1922)">
<path d="M40 52C33.383 52 28 46.617 28 40C28 33.383 33.383 28 40 28C46.617 28 52 33.383 52 40C52 46.617 46.617 52 40 52ZM40 30C34.486 30 30 34.486 30 40C30 45.514 34.486 50 40 50C45.514 50 50 45.514 50 40C50 34.486 45.514 30 40 30ZM42.5 44.33C42.979 44.054 43.143 43.442 42.866 42.964L41 39.732V34C41 33.448 40.553 33 40 33C39.447 33 39 33.448 39 34V40C39 40.176 39.046 40.348 39.134 40.5L41.134 43.964C41.32 44.285 41.655 44.464 42.001 44.464C42.171 44.464 42.343 44.421 42.5 44.33Z" fill="#667B68"/>
</g>
<defs>
<clipPath id="clip0_1_1922">
<rect width="24" height="24" fill="white" transform="translate(28 28)"/>
</clipPath>
</defs>
</svg>
