<svg width="21" height="20" viewBox="0 0 21 20" fill="none" xmlns="http://www.w3.org/2000/svg">
<path fill-rule="evenodd" clip-rule="evenodd" d="M1.89593 12.8869C2.6617 12.1055 3.70032 11.6665 4.78328 11.6665H11.3166C12.3996 11.6665 13.4382 12.1055 14.204 12.8869C14.9697 13.6683 15.4 14.7281 15.4 15.8332V17.4998C15.4 17.9601 15.0343 18.3332 14.5833 18.3332C14.1323 18.3332 13.7666 17.9601 13.7666 17.4998V15.8332C13.7666 15.1701 13.5085 14.5342 13.049 14.0654C12.5896 13.5966 11.9664 13.3332 11.3166 13.3332H4.78328C4.1335 13.3332 3.51034 13.5966 3.05087 14.0654C2.59141 14.5342 2.33328 15.1701 2.33328 15.8332V17.4998C2.33328 17.9601 1.96765 18.3332 1.51662 18.3332C1.06559 18.3332 0.699951 17.9601 0.699951 17.4998V15.8332C0.699951 14.7281 1.13016 13.6683 1.89593 12.8869Z" fill="white"/>
<path fill-rule="evenodd" clip-rule="evenodd" d="M8.04989 3.33317C6.69679 3.33317 5.59989 4.45246 5.59989 5.83317C5.59989 7.21388 6.69679 8.33317 8.04989 8.33317C9.40298 8.33317 10.4999 7.21388 10.4999 5.83317C10.4999 4.45246 9.40298 3.33317 8.04989 3.33317ZM3.96655 5.83317C3.96655 3.53198 5.79472 1.6665 8.04989 1.6665C10.305 1.6665 12.1332 3.53198 12.1332 5.83317C12.1332 8.13436 10.305 9.99984 8.04989 9.99984C5.79472 9.99984 3.96655 8.13436 3.96655 5.83317Z" fill="white"/>
<path fill-rule="evenodd" clip-rule="evenodd" d="M16.2424 12.4001C16.3552 11.9545 16.8006 11.6865 17.2373 11.8016C18.1133 12.0324 18.8894 12.5535 19.4437 13.2831C19.998 14.0128 20.2992 14.9096 20.2998 15.8328L20.2998 17.5001C20.2998 17.9603 19.9342 18.3334 19.4832 18.3334C19.0321 18.3334 18.6665 17.9603 18.6665 17.5001L18.6665 15.8341C18.6665 15.834 18.6665 15.8341 18.6665 15.8341C18.666 15.2802 18.4854 14.742 18.1528 14.3043C17.8203 13.8665 17.3546 13.5538 16.829 13.4153C16.3923 13.3002 16.1297 12.8457 16.2424 12.4001Z" fill="white"/>
<path fill-rule="evenodd" clip-rule="evenodd" d="M12.9754 2.40174C13.0873 1.95588 13.5322 1.68699 13.9691 1.80114C14.8475 2.03062 15.626 2.55188 16.1819 3.28272C16.7379 4.01356 17.0396 4.91243 17.0396 5.8376C17.0396 6.76278 16.7379 7.66165 16.1819 8.39249C15.626 9.12333 14.8475 9.64458 13.9691 9.87406C13.5322 9.98822 13.0873 9.71932 12.9754 9.27347C12.8636 8.82761 13.1271 8.37364 13.564 8.25948C14.091 8.12179 14.5581 7.80904 14.8917 7.37053C15.2253 6.93203 15.4063 6.39271 15.4063 5.8376C15.4063 5.2825 15.2253 4.74318 14.8917 4.30467C14.5581 3.86617 14.091 3.55342 13.564 3.41573C13.1271 3.30157 12.8636 2.84759 12.9754 2.40174Z" fill="white"/>
</svg>
