<svg width="18" height="18" viewBox="0 0 18 18" fill="none" xmlns="http://www.w3.org/2000/svg">
<g clip-path="url(#clip0_383_1696)">
<path d="M1.36961 1.36499L2.15711 0.682487C3.06461 -0.225013 4.53461 -0.225013 5.44211 0.682487C5.46461 0.704987 6.85211 2.51249 6.85211 2.51249C7.70711 3.41249 7.70711 4.82999 6.85211 5.72249L5.98211 6.81749C7.07711 9.29999 8.77961 11.01 11.1796 12.03L12.2746 11.1525C13.1671 10.29 14.5921 10.29 15.4846 11.1525C15.4846 11.1525 17.2921 12.54 17.3146 12.5625C18.2221 13.47 18.2221 14.94 17.3521 15.81L16.6021 16.6725C15.7396 17.535 14.5771 18.0075 13.3171 18.0075C7.58711 18.0075 -0.00288773 10.41 -0.00288773 4.68749C-0.00288773 3.43499 0.469612 2.26499 1.36961 1.37249V1.36499ZM13.3171 16.5C14.1721 16.5 14.9596 16.185 15.4996 15.6375L16.2496 14.775C16.5571 14.4675 16.5721 13.965 16.2796 13.6425C16.2796 13.6425 14.4871 12.2625 14.4646 12.24C14.1571 11.9325 13.6171 11.9325 13.3021 12.24C13.2796 12.2625 11.7721 13.47 11.7721 13.47C11.5621 13.635 11.2846 13.68 11.0371 13.5825C7.93211 12.3975 5.70461 10.1775 4.42211 6.97499C4.32461 6.72749 4.36211 6.44249 4.53461 6.22499C4.53461 6.22499 5.74211 4.70999 5.75711 4.69499C6.07961 4.37249 6.07961 3.85499 5.75711 3.53249C5.73461 3.50999 4.35461 1.71749 4.35461 1.71749C4.03211 1.42499 3.52961 1.43249 3.18461 1.77749L2.39711 2.45999C1.81961 3.03749 1.49711 3.82499 1.49711 4.67999C1.49711 9.89999 8.82461 16.5 13.3171 16.5Z" fill="white"/>
</g>
<defs>
<clipPath id="clip0_383_1696">
<rect width="18" height="18" fill="white"/>
</clipPath>
</defs>
</svg>
